<svg width="80" height="70" viewBox="0 0 80 70" fill="none" xmlns="http://www.w3.org/2000/svg">
<mask id="path-1-outside-1_25_181" maskUnits="userSpaceOnUse" x="-0.28125" y="0.387695" width="80" height="69" fill="black">
<rect fill="white" x="-0.28125" y="0.387695" width="80" height="69"/>
<path fill-rule="evenodd" clip-rule="evenodd" d="M40.1719 8.51415C37.3367 5.67894 32.7399 5.67894 29.9047 8.51415L9.32478 29.0941C9.18997 29.2289 9.06158 29.3677 8.9396 29.5101C7.38433 30.8416 6.39873 32.8193 6.39873 35.0273C6.39873 36.2023 6.67787 37.3121 7.17346 38.294C7.52641 39.1051 8.03451 39.8648 8.69782 40.5281L29.2778 61.108C32.113 63.9432 36.7098 63.9432 39.545 61.108C42.3802 58.2728 42.3802 53.6761 39.545 50.8409L30.9914 42.2873H66.4588C70.4683 42.2873 73.7188 39.0369 73.7188 35.0273C73.7188 31.0177 70.4683 27.7673 66.4588 27.7673H31.186L40.1719 18.7813C43.0071 15.9461 43.0071 11.3494 40.1719 8.51415Z"/>
</mask>
<path fill-rule="evenodd" clip-rule="evenodd" d="M40.1719 8.51415C37.3367 5.67894 32.7399 5.67894 29.9047 8.51415L9.32478 29.0941C9.18997 29.2289 9.06158 29.3677 8.9396 29.5101C7.38433 30.8416 6.39873 32.8193 6.39873 35.0273C6.39873 36.2023 6.67787 37.3121 7.17346 38.294C7.52641 39.1051 8.03451 39.8648 8.69782 40.5281L29.2778 61.108C32.113 63.9432 36.7098 63.9432 39.545 61.108C42.3802 58.2728 42.3802 53.6761 39.545 50.8409L30.9914 42.2873H66.4588C70.4683 42.2873 73.7188 39.0369 73.7188 35.0273C73.7188 31.0177 70.4683 27.7673 66.4588 27.7673H31.186L40.1719 18.7813C43.0071 15.9461 43.0071 11.3494 40.1719 8.51415Z" fill="white"/>
<path d="M29.9047 8.51415L25.6621 4.27151V4.27151L29.9047 8.51415ZM40.1719 8.51415L35.9293 12.7568L40.1719 8.51415ZM9.32478 29.0941L13.5674 33.3368L13.5674 33.3368L9.32478 29.0941ZM8.9396 29.5101L13.4961 33.4137L13.1942 33.7661L12.8417 34.0679L8.9396 29.5101ZM7.17346 38.294L12.5299 35.5906L12.6069 35.7432L12.6751 35.8999L7.17346 38.294ZM8.69782 40.5281L12.9405 36.2854V36.2854L8.69782 40.5281ZM29.2778 61.108L25.0351 65.3507L29.2778 61.108ZM30.9914 42.2873L26.7487 46.5299L16.5061 36.2873H30.9914V42.2873ZM31.186 27.7673V33.7673H16.7007L26.9433 23.5246L31.186 27.7673ZM40.1719 18.7813L35.9293 14.5387L40.1719 18.7813ZM25.6621 4.27151C30.8404 -0.906845 39.2362 -0.906842 44.4146 4.27151L35.9293 12.7568C35.4372 12.2647 34.6394 12.2647 34.1474 12.7568L25.6621 4.27151ZM5.08214 24.8515L25.6621 4.27151L34.1474 12.7568L13.5674 33.3368L5.08214 24.8515ZM4.38311 25.6064C4.60518 25.3472 4.83826 25.0953 5.08217 24.8514L13.5674 33.3368C13.5417 33.3625 13.518 33.3882 13.4961 33.4137L4.38311 25.6064ZM0.398727 35.0273C0.398727 30.9932 2.20754 27.3751 5.03746 24.9523L12.8417 34.0679C12.5611 34.3081 12.3987 34.6455 12.3987 35.0273H0.398727ZM1.81703 40.9975C0.907974 39.1964 0.398727 37.1626 0.398727 35.0273H12.3987C12.3987 35.242 12.4478 35.4279 12.5299 35.5906L1.81703 40.9975ZM4.45518 44.7707C3.25146 43.567 2.31998 42.1776 1.67183 40.6882L12.6751 35.8999C12.7328 36.0325 12.8176 36.1625 12.9405 36.2854L4.45518 44.7707ZM25.0351 65.3507L4.45518 44.7707L12.9405 36.2854L33.5204 56.8654L25.0351 65.3507ZM43.7876 65.3507C38.6093 70.529 30.2135 70.529 25.0351 65.3507L33.5204 56.8654C34.0125 57.3575 34.8103 57.3575 35.3023 56.8654L43.7876 65.3507ZM43.7876 46.5982C48.966 51.7766 48.966 60.1723 43.7876 65.3507L35.3023 56.8654C35.7944 56.3733 35.7944 55.5756 35.3023 55.0835L43.7876 46.5982ZM35.234 38.0446L43.7876 46.5982L35.3023 55.0835L26.7487 46.5299L35.234 38.0446ZM66.4588 48.2873H30.9914V36.2873H66.4588V48.2873ZM79.7188 35.0273C79.7188 42.3506 73.7821 48.2873 66.4588 48.2873V36.2873C67.1546 36.2873 67.7188 35.7232 67.7188 35.0273H79.7188ZM66.4588 21.7673C73.782 21.7673 79.7188 27.704 79.7188 35.0273H67.7188C67.7188 34.3314 67.1546 33.7673 66.4588 33.7673V21.7673ZM31.186 21.7673H66.4588V33.7673H31.186V21.7673ZM44.4146 23.024L35.4286 32.0099L26.9433 23.5246L35.9293 14.5387L44.4146 23.024ZM44.4146 4.27151C49.5929 9.44985 49.5929 17.8456 44.4146 23.024L35.9293 14.5387C36.4213 14.0466 36.4214 13.2489 35.9293 12.7568L44.4146 4.27151Z" fill="#353535" mask="url(#path-1-outside-1_25_181)"/>
</svg>
