<svg width="80" height="70" viewBox="0 0 80 70" fill="none" xmlns="http://www.w3.org/2000/svg">
<mask id="path-1-outside-1_21_67" maskUnits="userSpaceOnUse" x="0.398438" y="0.387695" width="80" height="69" fill="black">
<rect fill="white" x="0.398438" y="0.387695" width="80" height="69"/>
<path fill-rule="evenodd" clip-rule="evenodd" d="M39.9453 8.5141C42.7805 5.67889 47.3772 5.67889 50.2125 8.5141L70.7924 29.0941C70.9272 29.2289 71.0556 29.3676 71.1776 29.51C72.7329 30.8416 73.7185 32.8193 73.7185 35.0272C73.7185 36.2022 73.4393 37.3121 72.9437 38.294C72.5908 39.105 72.0827 39.8647 71.4194 40.528L50.8394 61.108C48.0042 63.9432 43.4074 63.9432 40.5722 61.108C37.737 58.2728 37.737 53.676 40.5722 50.8408L49.1258 42.2872H13.6584C9.64885 42.2872 6.39844 39.0368 6.39844 35.0272C6.39844 31.0176 9.64885 27.7672 13.6584 27.7672H48.9312L39.9453 18.7813C37.1101 15.9461 37.1101 11.3493 39.9453 8.5141Z"/>
</mask>
<path fill-rule="evenodd" clip-rule="evenodd" d="M39.9453 8.5141C42.7805 5.67889 47.3772 5.67889 50.2125 8.5141L70.7924 29.0941C70.9272 29.2289 71.0556 29.3676 71.1776 29.51C72.7329 30.8416 73.7185 32.8193 73.7185 35.0272C73.7185 36.2022 73.4393 37.3121 72.9437 38.294C72.5908 39.105 72.0827 39.8647 71.4194 40.528L50.8394 61.108C48.0042 63.9432 43.4074 63.9432 40.5722 61.108C37.737 58.2728 37.737 53.676 40.5722 50.8408L49.1258 42.2872H13.6584C9.64885 42.2872 6.39844 39.0368 6.39844 35.0272C6.39844 31.0176 9.64885 27.7672 13.6584 27.7672H48.9312L39.9453 18.7813C37.1101 15.9461 37.1101 11.3493 39.9453 8.5141Z" fill="white"/>
<path d="M50.2125 8.5141L54.4551 4.27146V4.27146L50.2125 8.5141ZM39.9453 8.5141L44.1879 12.7567V12.7567L39.9453 8.5141ZM70.7924 29.0941L66.5498 33.3367L66.5498 33.3367L70.7924 29.0941ZM71.1776 29.51L66.6211 33.4137L66.923 33.766L67.2754 34.0678L71.1776 29.51ZM72.9437 38.294L67.5873 35.5905L67.5103 35.7431L67.4421 35.8998L72.9437 38.294ZM71.4194 40.528L67.1767 36.2854L71.4194 40.528ZM50.8394 61.108L55.082 65.3506L50.8394 61.108ZM49.1258 42.2872L53.3684 46.5299L63.6111 36.2872H49.1258V42.2872ZM48.9312 27.7672V33.7672H63.4165L53.1738 23.5246L48.9312 27.7672ZM39.9453 18.7813L44.1879 14.5386L39.9453 18.7813ZM54.4551 4.27146C49.2767 -0.906894 40.881 -0.906891 35.7026 4.27146L44.1879 12.7567C44.68 12.2647 45.4778 12.2647 45.9698 12.7567L54.4551 4.27146ZM75.035 24.8514L54.4551 4.27146L45.9698 12.7567L66.5498 33.3367L75.035 24.8514ZM75.7341 25.6064C75.512 25.3472 75.2789 25.0953 75.035 24.8514L66.5498 33.3367C66.5755 33.3624 66.5992 33.3881 66.6211 33.4137L75.7341 25.6064ZM79.7185 35.0272C79.7185 30.9931 77.9096 27.3751 75.0797 24.9523L67.2754 34.0678C67.5561 34.3081 67.7185 34.6454 67.7185 35.0272H79.7185ZM78.3002 40.9974C79.2092 39.1963 79.7185 37.1626 79.7185 35.0272H67.7185C67.7185 35.2419 67.6694 35.4278 67.5873 35.5905L78.3002 40.9974ZM75.662 44.7707C76.8657 43.567 77.7972 42.1776 78.4454 40.6882L67.4421 35.8998C67.3844 36.0325 67.2996 36.1625 67.1767 36.2854L75.662 44.7707ZM55.082 65.3506L75.662 44.7707L67.1767 36.2854L46.5968 56.8654L55.082 65.3506ZM36.3296 65.3506C41.5079 70.529 49.9037 70.529 55.082 65.3506L46.5968 56.8654C46.1047 57.3574 45.3069 57.3574 44.8149 56.8654L36.3296 65.3506ZM36.3296 46.5982C31.1512 51.7765 31.1512 60.1723 36.3296 65.3506L44.8149 56.8654C44.3228 56.3733 44.3228 55.5755 44.8148 55.0835L36.3296 46.5982ZM44.8832 38.0446L36.3296 46.5982L44.8148 55.0835L53.3684 46.5299L44.8832 38.0446ZM13.6584 48.2872H49.1258V36.2872H13.6584V48.2872ZM0.398438 35.0272C0.398438 42.3505 6.33513 48.2872 13.6584 48.2872V36.2872C12.9626 36.2872 12.3984 35.7231 12.3984 35.0272H0.398438ZM13.6584 21.7672C6.33514 21.7672 0.398438 27.7039 0.398438 35.0272H12.3984C12.3984 34.3313 12.9626 33.7672 13.6584 33.7672V21.7672ZM48.9312 21.7672H13.6584V33.7672H48.9312V21.7672ZM35.7026 23.0239L44.6886 32.0099L53.1738 23.5246L44.1879 14.5386L35.7026 23.0239ZM35.7026 4.27146C30.5243 9.4498 30.5243 17.8456 35.7026 23.0239L44.1879 14.5386C43.6958 14.0466 43.6958 13.2488 44.1879 12.7567L35.7026 4.27146Z" fill="#353535" mask="url(#path-1-outside-1_21_67)"/>
</svg>
